<mxfile host="app.diagrams.net" modified="2022-07-06T04:14:49.901Z" agent="5.0 (Windows NT 10.0; Win64; x64) AppleWebKit/537.36 (KHTML, like Gecko) Chrome/103.0.0.0 Safari/537.36" etag="8JccEoZ_rexIuWoS4DR9" version="20.0.4" type="github">
  <diagram id="huoF-vAIRfk1K-JHcWcO" name="Page-1">
    <mxGraphModel dx="474" dy="254" grid="0" gridSize="10" guides="1" tooltips="1" connect="1" arrows="1" fold="1" page="1" pageScale="1" pageWidth="850" pageHeight="1100" math="0" shadow="0">
      <root>
        <mxCell id="0" />
        <mxCell id="1" parent="0" />
        <mxCell id="CRI_VrcL7amUR2uQyrJO-1" value="" style="whiteSpace=wrap;html=1;aspect=fixed;" parent="1" vertex="1">
          <mxGeometry x="199" y="233" width="80" height="80" as="geometry" />
        </mxCell>
        <mxCell id="CRI_VrcL7amUR2uQyrJO-2" value="" style="shape=document;whiteSpace=wrap;html=1;boundedLbl=1;" parent="1" vertex="1">
          <mxGeometry x="440" y="269" width="120" height="80" as="geometry" />
        </mxCell>
        <mxCell id="CRI_VrcL7amUR2uQyrJO-3" value="" style="endArrow=none;html=1;rounded=0;" parent="1" edge="1">
          <mxGeometry width="50" height="50" relative="1" as="geometry">
            <mxPoint x="301" y="310" as="sourcePoint" />
            <mxPoint x="438" y="319" as="targetPoint" />
          </mxGeometry>
        </mxCell>
      </root>
    </mxGraphModel>
  </diagram>
</mxfile>
